<svg width="42" height="42" viewBox="0 0 42 42" fill="none" xmlns="http://www.w3.org/2000/svg">
<path d="M36.2106 5.37988H6.75153C6.04307 5.37988 5.4707 5.95225 5.4707 6.66071V36.1198C5.4707 36.8283 6.04307 37.4007 6.75153 37.4007H36.2106C36.9191 37.4007 37.4915 36.8283 37.4915 36.1198V6.66071C37.4915 5.95225 36.9191 5.37988 36.2106 5.37988ZM32.5122 14.7259H29.9546C27.9493 14.7259 27.561 15.6786 27.561 17.0795V20.1655H32.3481L31.7237 24.9966H27.561V37.4007H22.5698V25.0006H18.3951V20.1655H22.5698V16.6032C22.5698 12.4685 25.0954 10.215 28.7858 10.215C30.555 10.215 32.072 10.3471 32.5163 10.4071V14.7259H32.5122Z" fill="#FA4A0C"/>
</svg>
