<svg width="41" height="42" viewBox="0 0 41 42" fill="none" xmlns="http://www.w3.org/2000/svg">
<path d="M37.145 11.0757C35.9202 11.604 34.5873 11.9843 33.2144 12.1324C34.6398 11.2856 35.7072 9.94774 36.2164 8.36992C34.8788 9.16559 33.4136 9.72353 31.8855 10.019C31.2469 9.33625 30.4745 8.79235 29.6165 8.42118C28.7585 8.05001 27.8332 7.85952 26.8983 7.86159C23.1159 7.86159 20.0739 10.9276 20.0739 14.69C20.0739 15.2184 20.1379 15.7467 20.242 16.255C14.5783 15.9588 9.52705 13.2531 6.16887 9.1104C5.55697 10.1555 5.23632 11.3456 5.24026 12.5566C5.24026 14.9262 6.44505 17.0155 8.28224 18.2443C7.19955 18.2017 6.14222 17.9041 5.19624 17.3758V17.4598C5.19624 20.778 7.54176 23.5278 10.6678 24.1602C10.0808 24.3126 9.47704 24.3906 8.87062 24.3923C8.42633 24.3923 8.00606 24.3483 7.58178 24.2882C8.44634 26.994 10.964 28.9593 13.9619 29.0233C11.6164 30.8605 8.67849 31.9412 5.48843 31.9412C4.91605 31.9412 4.38771 31.9212 3.83936 31.8572C6.86532 33.7984 10.4556 34.9191 14.3222 34.9191C26.8743 34.9191 33.7428 24.5204 33.7428 15.4945C33.7428 15.1983 33.7428 14.9022 33.7227 14.606C35.0516 13.6333 36.2164 12.4286 37.145 11.0757Z" fill="#FA4A0C"/>
</svg>
